<mxfile host="65bd71144e">
    <diagram id="HVmflJdejKAQhoo5Lnrt" name="Seite-1">
        <mxGraphModel dx="656" dy="1678" grid="1" gridSize="10" guides="1" tooltips="1" connect="1" arrows="1" fold="1" page="1" pageScale="1" pageWidth="827" pageHeight="1169" math="0" shadow="0">
            <root>
                <mxCell id="0"/>
                <mxCell id="1" parent="0"/>
                <mxCell id="1pLQQAhpk_TerMQ9mpoH-33" value="&lt;p style=&quot;margin: 0px ; margin-top: 6px ; text-align: center&quot;&gt;&lt;b&gt;Autonomy Watchdog&amp;nbsp;&lt;/b&gt;&lt;/p&gt;" style="align=left;overflow=fill;html=1;dropTarget=0;" parent="1" vertex="1">
                    <mxGeometry x="850" y="-100" width="400" height="460" as="geometry"/>
                </mxCell>
                <mxCell id="1pLQQAhpk_TerMQ9mpoH-34" value="" style="shape=component;jettyWidth=8;jettyHeight=4;" parent="1pLQQAhpk_TerMQ9mpoH-33" vertex="1">
                    <mxGeometry x="1" width="20" height="20" relative="1" as="geometry">
                        <mxPoint x="-24" y="4" as="offset"/>
                    </mxGeometry>
                </mxCell>
                <mxCell id="1pLQQAhpk_TerMQ9mpoH-23" value="&lt;p style=&quot;margin:0px;margin-top:6px;text-align:center;&quot;&gt;&lt;b&gt;Robot&lt;/b&gt;&lt;/p&gt;" style="align=left;overflow=fill;html=1;dropTarget=0;" parent="1" vertex="1">
                    <mxGeometry x="1050" y="395" width="250" height="240" as="geometry"/>
                </mxCell>
                <mxCell id="1pLQQAhpk_TerMQ9mpoH-24" value="" style="shape=component;jettyWidth=8;jettyHeight=4;" parent="1pLQQAhpk_TerMQ9mpoH-23" vertex="1">
                    <mxGeometry x="1" width="20" height="20" relative="1" as="geometry">
                        <mxPoint x="-24" y="4" as="offset"/>
                    </mxGeometry>
                </mxCell>
                <mxCell id="1pLQQAhpk_TerMQ9mpoH-2" value="&lt;p style=&quot;margin:0px;margin-top:6px;text-align:center;&quot;&gt;&lt;b&gt;Navigation2&lt;/b&gt;&lt;/p&gt;" style="align=left;overflow=fill;html=1;dropTarget=0;" parent="1" vertex="1">
                    <mxGeometry x="270" y="260" width="440" height="310" as="geometry"/>
                </mxCell>
                <mxCell id="1pLQQAhpk_TerMQ9mpoH-3" value="" style="shape=component;jettyWidth=8;jettyHeight=4;" parent="1pLQQAhpk_TerMQ9mpoH-2" vertex="1">
                    <mxGeometry x="1" width="20" height="20" relative="1" as="geometry">
                        <mxPoint x="-24" y="4" as="offset"/>
                    </mxGeometry>
                </mxCell>
                <mxCell id="1pLQQAhpk_TerMQ9mpoH-49" style="edgeStyle=orthogonalEdgeStyle;rounded=0;orthogonalLoop=1;jettySize=auto;html=1;exitX=0.5;exitY=0;exitDx=0;exitDy=0;entryX=0.25;entryY=1;entryDx=0;entryDy=0;" parent="1" source="1pLQQAhpk_TerMQ9mpoH-4" target="1pLQQAhpk_TerMQ9mpoH-43" edge="1">
                    <mxGeometry relative="1" as="geometry">
                        <Array as="points">
                            <mxPoint x="480" y="290"/>
                            <mxPoint x="1130" y="290"/>
                        </Array>
                    </mxGeometry>
                </mxCell>
                <mxCell id="1pLQQAhpk_TerMQ9mpoH-4" value="bt_navigator" style="html=1;" parent="1" vertex="1">
                    <mxGeometry x="425" y="340" width="110" height="50" as="geometry"/>
                </mxCell>
                <mxCell id="1pLQQAhpk_TerMQ9mpoH-47" style="edgeStyle=orthogonalEdgeStyle;rounded=0;orthogonalLoop=1;jettySize=auto;html=1;exitX=0.5;exitY=0;exitDx=0;exitDy=0;entryX=0.5;entryY=1;entryDx=0;entryDy=0;" parent="1" source="1pLQQAhpk_TerMQ9mpoH-5" target="1pLQQAhpk_TerMQ9mpoH-43" edge="1">
                    <mxGeometry relative="1" as="geometry">
                        <Array as="points">
                            <mxPoint x="405" y="310"/>
                            <mxPoint x="1160" y="310"/>
                        </Array>
                    </mxGeometry>
                </mxCell>
                <mxCell id="1pLQQAhpk_TerMQ9mpoH-68" style="edgeStyle=orthogonalEdgeStyle;rounded=0;orthogonalLoop=1;jettySize=auto;html=1;exitX=0.25;exitY=0;exitDx=0;exitDy=0;entryX=0;entryY=0.5;entryDx=0;entryDy=0;" parent="1" source="1pLQQAhpk_TerMQ9mpoH-5" target="1pLQQAhpk_TerMQ9mpoH-61" edge="1">
                    <mxGeometry relative="1" as="geometry"/>
                </mxCell>
                <mxCell id="1pLQQAhpk_TerMQ9mpoH-69" value="/path" style="edgeLabel;html=1;align=center;verticalAlign=middle;resizable=0;points=[];" parent="1pLQQAhpk_TerMQ9mpoH-68" vertex="1" connectable="0">
                    <mxGeometry x="0.8087" y="2" relative="1" as="geometry">
                        <mxPoint x="1" as="offset"/>
                    </mxGeometry>
                </mxCell>
                <mxCell id="1pLQQAhpk_TerMQ9mpoH-5" value="planner_server" style="html=1;" parent="1" vertex="1">
                    <mxGeometry x="350" y="440" width="110" height="50" as="geometry"/>
                </mxCell>
                <mxCell id="1pLQQAhpk_TerMQ9mpoH-48" style="edgeStyle=orthogonalEdgeStyle;rounded=0;orthogonalLoop=1;jettySize=auto;html=1;exitX=0.75;exitY=0;exitDx=0;exitDy=0;entryX=0.75;entryY=1;entryDx=0;entryDy=0;" parent="1" source="1pLQQAhpk_TerMQ9mpoH-6" target="1pLQQAhpk_TerMQ9mpoH-43" edge="1">
                    <mxGeometry relative="1" as="geometry">
                        <Array as="points">
                            <mxPoint x="603" y="340"/>
                            <mxPoint x="1190" y="340"/>
                        </Array>
                    </mxGeometry>
                </mxCell>
                <mxCell id="1pLQQAhpk_TerMQ9mpoH-6" value="controller_server" style="html=1;" parent="1" vertex="1">
                    <mxGeometry x="520" y="440" width="110" height="50" as="geometry"/>
                </mxCell>
                <mxCell id="1pLQQAhpk_TerMQ9mpoH-7" value="" style="endArrow=classic;html=1;rounded=0;exitX=0.75;exitY=0;exitDx=0;exitDy=0;entryX=0.073;entryY=1.02;entryDx=0;entryDy=0;entryPerimeter=0;" parent="1" source="1pLQQAhpk_TerMQ9mpoH-5" target="1pLQQAhpk_TerMQ9mpoH-4" edge="1">
                    <mxGeometry width="50" height="50" relative="1" as="geometry">
                        <mxPoint x="360" y="440" as="sourcePoint"/>
                        <mxPoint x="410" y="390" as="targetPoint"/>
                    </mxGeometry>
                </mxCell>
                <mxCell id="1pLQQAhpk_TerMQ9mpoH-8" value="/path" style="edgeLabel;html=1;align=center;verticalAlign=middle;resizable=0;points=[];" parent="1pLQQAhpk_TerMQ9mpoH-7" vertex="1" connectable="0">
                    <mxGeometry x="-0.1834" y="-1" relative="1" as="geometry">
                        <mxPoint as="offset"/>
                    </mxGeometry>
                </mxCell>
                <mxCell id="1pLQQAhpk_TerMQ9mpoH-10" value="" style="endArrow=classic;html=1;rounded=0;exitX=0.932;exitY=1.01;exitDx=0;exitDy=0;exitPerimeter=0;entryX=0.073;entryY=0.001;entryDx=0;entryDy=0;entryPerimeter=0;" parent="1" source="1pLQQAhpk_TerMQ9mpoH-4" target="1pLQQAhpk_TerMQ9mpoH-6" edge="1">
                    <mxGeometry width="50" height="50" relative="1" as="geometry">
                        <mxPoint x="510" y="450" as="sourcePoint"/>
                        <mxPoint x="560" y="400" as="targetPoint"/>
                    </mxGeometry>
                </mxCell>
                <mxCell id="1pLQQAhpk_TerMQ9mpoH-11" value="FollowPath(Action)" style="edgeLabel;html=1;align=center;verticalAlign=middle;resizable=0;points=[];" parent="1pLQQAhpk_TerMQ9mpoH-10" vertex="1" connectable="0">
                    <mxGeometry x="-0.2301" relative="1" as="geometry">
                        <mxPoint as="offset"/>
                    </mxGeometry>
                </mxCell>
                <mxCell id="1pLQQAhpk_TerMQ9mpoH-64" style="edgeStyle=orthogonalEdgeStyle;rounded=0;orthogonalLoop=1;jettySize=auto;html=1;exitX=0.75;exitY=1;exitDx=0;exitDy=0;entryX=0;entryY=0.75;entryDx=0;entryDy=0;" parent="1" source="1pLQQAhpk_TerMQ9mpoH-12" target="1pLQQAhpk_TerMQ9mpoH-43" edge="1">
                    <mxGeometry relative="1" as="geometry">
                        <Array as="points">
                            <mxPoint x="203" y="580"/>
                            <mxPoint x="760" y="580"/>
                            <mxPoint x="760" y="140"/>
                            <mxPoint x="1070" y="140"/>
                            <mxPoint x="1070" y="115"/>
                        </Array>
                    </mxGeometry>
                </mxCell>
                <mxCell id="1pLQQAhpk_TerMQ9mpoH-71" style="edgeStyle=orthogonalEdgeStyle;rounded=0;orthogonalLoop=1;jettySize=auto;html=1;exitX=0.25;exitY=0;exitDx=0;exitDy=0;entryX=0;entryY=0.25;entryDx=0;entryDy=0;" parent="1" source="1pLQQAhpk_TerMQ9mpoH-12" target="1pLQQAhpk_TerMQ9mpoH-61" edge="1">
                    <mxGeometry relative="1" as="geometry">
                        <Array as="points">
                            <mxPoint x="148" y="420"/>
                            <mxPoint x="90" y="420"/>
                            <mxPoint x="90" y="-25"/>
                        </Array>
                    </mxGeometry>
                </mxCell>
                <mxCell id="1pLQQAhpk_TerMQ9mpoH-72" value="/tf" style="edgeLabel;html=1;align=center;verticalAlign=middle;resizable=0;points=[];" parent="1pLQQAhpk_TerMQ9mpoH-71" vertex="1" connectable="0">
                    <mxGeometry x="0.8501" y="1" relative="1" as="geometry">
                        <mxPoint x="1" as="offset"/>
                    </mxGeometry>
                </mxCell>
                <mxCell id="1pLQQAhpk_TerMQ9mpoH-12" value="AMCL" style="html=1;" parent="1" vertex="1">
                    <mxGeometry x="120" y="450" width="110" height="50" as="geometry"/>
                </mxCell>
                <mxCell id="1pLQQAhpk_TerMQ9mpoH-45" style="edgeStyle=orthogonalEdgeStyle;rounded=0;orthogonalLoop=1;jettySize=auto;html=1;exitX=1;exitY=0.5;exitDx=0;exitDy=0;entryX=1;entryY=0.25;entryDx=0;entryDy=0;" parent="1" source="1pLQQAhpk_TerMQ9mpoH-13" target="1pLQQAhpk_TerMQ9mpoH-43" edge="1">
                    <mxGeometry relative="1" as="geometry">
                        <Array as="points">
                            <mxPoint x="1330" y="595"/>
                            <mxPoint x="1330" y="85"/>
                        </Array>
                    </mxGeometry>
                </mxCell>
                <mxCell id="1pLQQAhpk_TerMQ9mpoH-62" style="edgeStyle=orthogonalEdgeStyle;rounded=0;orthogonalLoop=1;jettySize=auto;html=1;exitX=1;exitY=0.75;exitDx=0;exitDy=0;entryX=1;entryY=0.25;entryDx=0;entryDy=0;" parent="1" source="1pLQQAhpk_TerMQ9mpoH-13" target="1pLQQAhpk_TerMQ9mpoH-61" edge="1">
                    <mxGeometry relative="1" as="geometry">
                        <Array as="points">
                            <mxPoint x="1370" y="608"/>
                            <mxPoint x="1370" y="-25"/>
                        </Array>
                    </mxGeometry>
                </mxCell>
                <mxCell id="1pLQQAhpk_TerMQ9mpoH-63" value="/scan" style="edgeLabel;html=1;align=center;verticalAlign=middle;resizable=0;points=[];" parent="1pLQQAhpk_TerMQ9mpoH-62" vertex="1" connectable="0">
                    <mxGeometry x="0.8131" y="-1" relative="1" as="geometry">
                        <mxPoint as="offset"/>
                    </mxGeometry>
                </mxCell>
                <mxCell id="1pLQQAhpk_TerMQ9mpoH-13" value="Lidar" style="html=1;" parent="1" vertex="1">
                    <mxGeometry x="1090" y="570" width="110" height="50" as="geometry"/>
                </mxCell>
                <mxCell id="1pLQQAhpk_TerMQ9mpoH-14" value="" style="endArrow=classic;html=1;rounded=0;exitX=0;exitY=0.5;exitDx=0;exitDy=0;entryX=0.5;entryY=1;entryDx=0;entryDy=0;" parent="1" source="1pLQQAhpk_TerMQ9mpoH-13" target="1pLQQAhpk_TerMQ9mpoH-12" edge="1">
                    <mxGeometry width="50" height="50" relative="1" as="geometry">
                        <mxPoint x="140" y="510" as="sourcePoint"/>
                        <mxPoint x="190" y="460" as="targetPoint"/>
                        <Array as="points">
                            <mxPoint x="175" y="595"/>
                        </Array>
                    </mxGeometry>
                </mxCell>
                <mxCell id="1pLQQAhpk_TerMQ9mpoH-15" value="/scan" style="edgeLabel;html=1;align=center;verticalAlign=middle;resizable=0;points=[];" parent="1pLQQAhpk_TerMQ9mpoH-14" vertex="1" connectable="0">
                    <mxGeometry x="-0.2103" y="-1" relative="1" as="geometry">
                        <mxPoint x="-353" y="-54" as="offset"/>
                    </mxGeometry>
                </mxCell>
                <mxCell id="1pLQQAhpk_TerMQ9mpoH-46" style="edgeStyle=orthogonalEdgeStyle;rounded=0;orthogonalLoop=1;jettySize=auto;html=1;exitX=0.5;exitY=0;exitDx=0;exitDy=0;entryX=0.75;entryY=0;entryDx=0;entryDy=0;" parent="1" source="1pLQQAhpk_TerMQ9mpoH-16" target="1pLQQAhpk_TerMQ9mpoH-43" edge="1">
                    <mxGeometry relative="1" as="geometry">
                        <Array as="points">
                            <mxPoint x="175" y="60"/>
                            <mxPoint x="1190" y="60"/>
                        </Array>
                    </mxGeometry>
                </mxCell>
                <mxCell id="1pLQQAhpk_TerMQ9mpoH-73" style="edgeStyle=orthogonalEdgeStyle;rounded=0;orthogonalLoop=1;jettySize=auto;html=1;exitX=0.75;exitY=0;exitDx=0;exitDy=0;entryX=0;entryY=0.75;entryDx=0;entryDy=0;" parent="1" source="1pLQQAhpk_TerMQ9mpoH-16" target="1pLQQAhpk_TerMQ9mpoH-61" edge="1">
                    <mxGeometry relative="1" as="geometry"/>
                </mxCell>
                <mxCell id="1pLQQAhpk_TerMQ9mpoH-74" value="/map" style="edgeLabel;html=1;align=center;verticalAlign=middle;resizable=0;points=[];" parent="1pLQQAhpk_TerMQ9mpoH-73" vertex="1" connectable="0">
                    <mxGeometry x="0.8066" y="1" relative="1" as="geometry">
                        <mxPoint x="1" as="offset"/>
                    </mxGeometry>
                </mxCell>
                <mxCell id="1pLQQAhpk_TerMQ9mpoH-16" value="map_server / &lt;br&gt;Mapping" style="html=1;" parent="1" vertex="1">
                    <mxGeometry x="120" y="290" width="110" height="50" as="geometry"/>
                </mxCell>
                <mxCell id="1pLQQAhpk_TerMQ9mpoH-17" value="" style="endArrow=classic;html=1;rounded=0;exitX=0.5;exitY=1;exitDx=0;exitDy=0;entryX=0.5;entryY=0;entryDx=0;entryDy=0;" parent="1" source="1pLQQAhpk_TerMQ9mpoH-16" target="1pLQQAhpk_TerMQ9mpoH-12" edge="1">
                    <mxGeometry width="50" height="50" relative="1" as="geometry">
                        <mxPoint x="150" y="400" as="sourcePoint"/>
                        <mxPoint x="200" y="350" as="targetPoint"/>
                    </mxGeometry>
                </mxCell>
                <mxCell id="1pLQQAhpk_TerMQ9mpoH-18" value="/map" style="edgeLabel;html=1;align=center;verticalAlign=middle;resizable=0;points=[];" parent="1pLQQAhpk_TerMQ9mpoH-17" vertex="1" connectable="0">
                    <mxGeometry x="0.2485" y="-2" relative="1" as="geometry">
                        <mxPoint x="2" y="-9" as="offset"/>
                    </mxGeometry>
                </mxCell>
                <mxCell id="1pLQQAhpk_TerMQ9mpoH-20" value="" style="endArrow=classic;html=1;rounded=0;exitX=1;exitY=0.5;exitDx=0;exitDy=0;entryX=0.5;entryY=1;entryDx=0;entryDy=0;" parent="1" source="1pLQQAhpk_TerMQ9mpoH-12" target="1pLQQAhpk_TerMQ9mpoH-6" edge="1">
                    <mxGeometry width="50" height="50" relative="1" as="geometry">
                        <mxPoint x="270" y="470" as="sourcePoint"/>
                        <mxPoint x="320" y="420" as="targetPoint"/>
                        <Array as="points">
                            <mxPoint x="290" y="475"/>
                            <mxPoint x="290" y="520"/>
                            <mxPoint x="575" y="520"/>
                        </Array>
                    </mxGeometry>
                </mxCell>
                <mxCell id="1pLQQAhpk_TerMQ9mpoH-21" value="/tf&lt;br&gt;map-&amp;gt;odom" style="edgeLabel;html=1;align=center;verticalAlign=middle;resizable=0;points=[];" parent="1pLQQAhpk_TerMQ9mpoH-20" vertex="1" connectable="0">
                    <mxGeometry x="0.0772" y="1" relative="1" as="geometry">
                        <mxPoint x="93" as="offset"/>
                    </mxGeometry>
                </mxCell>
                <mxCell id="1pLQQAhpk_TerMQ9mpoH-25" value="base_controller" style="html=1;" parent="1" vertex="1">
                    <mxGeometry x="1090" y="440" width="110" height="50" as="geometry"/>
                </mxCell>
                <mxCell id="1pLQQAhpk_TerMQ9mpoH-9" value="" style="endArrow=classic;html=1;rounded=0;exitX=1;exitY=0.5;exitDx=0;exitDy=0;entryX=0;entryY=0.5;entryDx=0;entryDy=0;" parent="1" source="1pLQQAhpk_TerMQ9mpoH-6" target="1pLQQAhpk_TerMQ9mpoH-52" edge="1">
                    <mxGeometry width="50" height="50" relative="1" as="geometry">
                        <mxPoint x="650" y="470" as="sourcePoint"/>
                        <mxPoint x="770" y="465" as="targetPoint"/>
                    </mxGeometry>
                </mxCell>
                <mxCell id="1pLQQAhpk_TerMQ9mpoH-26" value="/cmd_vel" style="edgeLabel;html=1;align=center;verticalAlign=middle;resizable=0;points=[];" parent="1pLQQAhpk_TerMQ9mpoH-9" vertex="1" connectable="0">
                    <mxGeometry x="0.1158" y="1" relative="1" as="geometry">
                        <mxPoint as="offset"/>
                    </mxGeometry>
                </mxCell>
                <mxCell id="1pLQQAhpk_TerMQ9mpoH-44" style="edgeStyle=orthogonalEdgeStyle;rounded=0;orthogonalLoop=1;jettySize=auto;html=1;exitX=1;exitY=0.5;exitDx=0;exitDy=0;entryX=1;entryY=0.5;entryDx=0;entryDy=0;" parent="1" source="1pLQQAhpk_TerMQ9mpoH-28" target="1pLQQAhpk_TerMQ9mpoH-43" edge="1">
                    <mxGeometry relative="1" as="geometry">
                        <Array as="points">
                            <mxPoint x="1280" y="525"/>
                            <mxPoint x="1280" y="100"/>
                        </Array>
                    </mxGeometry>
                </mxCell>
                <mxCell id="1pLQQAhpk_TerMQ9mpoH-65" style="edgeStyle=orthogonalEdgeStyle;rounded=0;orthogonalLoop=1;jettySize=auto;html=1;exitX=1;exitY=0.75;exitDx=0;exitDy=0;entryX=1;entryY=0.75;entryDx=0;entryDy=0;" parent="1" source="1pLQQAhpk_TerMQ9mpoH-28" target="1pLQQAhpk_TerMQ9mpoH-61" edge="1">
                    <mxGeometry relative="1" as="geometry">
                        <Array as="points">
                            <mxPoint x="1350" y="538"/>
                            <mxPoint x="1350" y="5"/>
                        </Array>
                    </mxGeometry>
                </mxCell>
                <mxCell id="1pLQQAhpk_TerMQ9mpoH-70" value="/odom" style="edgeLabel;html=1;align=center;verticalAlign=middle;resizable=0;points=[];" parent="1pLQQAhpk_TerMQ9mpoH-65" vertex="1" connectable="0">
                    <mxGeometry x="0.7965" y="-2" relative="1" as="geometry">
                        <mxPoint x="1" as="offset"/>
                    </mxGeometry>
                </mxCell>
                <mxCell id="1pLQQAhpk_TerMQ9mpoH-28" value="Wheel Odometry" style="html=1;" parent="1" vertex="1">
                    <mxGeometry x="1090" y="500" width="110" height="50" as="geometry"/>
                </mxCell>
                <mxCell id="1pLQQAhpk_TerMQ9mpoH-29" value="" style="endArrow=classic;html=1;rounded=0;exitX=0;exitY=0.5;exitDx=0;exitDy=0;entryX=0.75;entryY=1;entryDx=0;entryDy=0;" parent="1" source="1pLQQAhpk_TerMQ9mpoH-28" target="1pLQQAhpk_TerMQ9mpoH-6" edge="1">
                    <mxGeometry width="50" height="50" relative="1" as="geometry">
                        <mxPoint x="630" y="550" as="sourcePoint"/>
                        <mxPoint x="680" y="500" as="targetPoint"/>
                        <Array as="points">
                            <mxPoint x="603" y="525"/>
                        </Array>
                    </mxGeometry>
                </mxCell>
                <mxCell id="1pLQQAhpk_TerMQ9mpoH-30" value="/odom" style="edgeLabel;html=1;align=center;verticalAlign=middle;resizable=0;points=[];" parent="1pLQQAhpk_TerMQ9mpoH-29" vertex="1" connectable="0">
                    <mxGeometry x="-0.0356" relative="1" as="geometry">
                        <mxPoint as="offset"/>
                    </mxGeometry>
                </mxCell>
                <mxCell id="1pLQQAhpk_TerMQ9mpoH-31" value="" style="endArrow=classic;html=1;rounded=0;exitX=0.75;exitY=1;exitDx=0;exitDy=0;entryX=0;entryY=0.5;entryDx=0;entryDy=0;" parent="1" source="1pLQQAhpk_TerMQ9mpoH-16" target="1pLQQAhpk_TerMQ9mpoH-5" edge="1">
                    <mxGeometry width="50" height="50" relative="1" as="geometry">
                        <mxPoint x="250" y="410" as="sourcePoint"/>
                        <mxPoint x="300" y="360" as="targetPoint"/>
                        <Array as="points">
                            <mxPoint x="203" y="390"/>
                            <mxPoint x="310" y="390"/>
                            <mxPoint x="310" y="465"/>
                        </Array>
                    </mxGeometry>
                </mxCell>
                <mxCell id="1pLQQAhpk_TerMQ9mpoH-32" value="/map" style="edgeLabel;html=1;align=center;verticalAlign=middle;resizable=0;points=[];" parent="1pLQQAhpk_TerMQ9mpoH-31" vertex="1" connectable="0">
                    <mxGeometry x="-0.3113" y="-1" relative="1" as="geometry">
                        <mxPoint as="offset"/>
                    </mxGeometry>
                </mxCell>
                <mxCell id="1pLQQAhpk_TerMQ9mpoH-38" style="edgeStyle=orthogonalEdgeStyle;rounded=0;orthogonalLoop=1;jettySize=auto;html=1;exitX=0.5;exitY=1;exitDx=0;exitDy=0;" parent="1" source="1pLQQAhpk_TerMQ9mpoH-35" edge="1">
                    <mxGeometry relative="1" as="geometry">
                        <mxPoint x="970" y="240" as="targetPoint"/>
                    </mxGeometry>
                </mxCell>
                <mxCell id="1pLQQAhpk_TerMQ9mpoH-39" value="Defines Parameters for Planning" style="edgeLabel;html=1;align=center;verticalAlign=middle;resizable=0;points=[];" parent="1pLQQAhpk_TerMQ9mpoH-38" vertex="1" connectable="0">
                    <mxGeometry x="0.2364" y="1" relative="1" as="geometry">
                        <mxPoint x="-1" y="-18" as="offset"/>
                    </mxGeometry>
                </mxCell>
                <mxCell id="1pLQQAhpk_TerMQ9mpoH-35" value="Behaviour Tree" style="rounded=0;whiteSpace=wrap;html=1;" parent="1" vertex="1">
                    <mxGeometry x="900" y="70" width="140" height="60" as="geometry"/>
                </mxCell>
                <mxCell id="1pLQQAhpk_TerMQ9mpoH-53" style="edgeStyle=orthogonalEdgeStyle;rounded=0;orthogonalLoop=1;jettySize=auto;html=1;entryX=0.5;entryY=0;entryDx=0;entryDy=0;" parent="1" target="1pLQQAhpk_TerMQ9mpoH-52" edge="1">
                    <mxGeometry relative="1" as="geometry">
                        <mxPoint x="870" y="330" as="sourcePoint"/>
                    </mxGeometry>
                </mxCell>
                <mxCell id="1pLQQAhpk_TerMQ9mpoH-56" value="/cmd_vel" style="edgeLabel;html=1;align=center;verticalAlign=middle;resizable=0;points=[];" parent="1pLQQAhpk_TerMQ9mpoH-53" vertex="1" connectable="0">
                    <mxGeometry x="0.1409" y="1" relative="1" as="geometry">
                        <mxPoint x="10" as="offset"/>
                    </mxGeometry>
                </mxCell>
                <mxCell id="1pLQQAhpk_TerMQ9mpoH-50" style="edgeStyle=orthogonalEdgeStyle;rounded=0;orthogonalLoop=1;jettySize=auto;html=1;exitX=0;exitY=0.5;exitDx=0;exitDy=0;entryX=1;entryY=0.5;entryDx=0;entryDy=0;" parent="1" source="1pLQQAhpk_TerMQ9mpoH-43" target="1pLQQAhpk_TerMQ9mpoH-35" edge="1">
                    <mxGeometry relative="1" as="geometry"/>
                </mxCell>
                <mxCell id="1pLQQAhpk_TerMQ9mpoH-51" value="informs" style="edgeLabel;html=1;align=center;verticalAlign=middle;resizable=0;points=[];" parent="1pLQQAhpk_TerMQ9mpoH-50" vertex="1" connectable="0">
                    <mxGeometry x="0.2867" y="1" relative="1" as="geometry">
                        <mxPoint x="9" y="-1" as="offset"/>
                    </mxGeometry>
                </mxCell>
                <mxCell id="1pLQQAhpk_TerMQ9mpoH-43" value="Heartrate Monitor" style="html=1;" parent="1" vertex="1">
                    <mxGeometry x="1100" y="70" width="120" height="60" as="geometry"/>
                </mxCell>
                <mxCell id="1pLQQAhpk_TerMQ9mpoH-54" style="edgeStyle=orthogonalEdgeStyle;rounded=0;orthogonalLoop=1;jettySize=auto;html=1;exitX=1;exitY=0.5;exitDx=0;exitDy=0;entryX=0;entryY=0.5;entryDx=0;entryDy=0;" parent="1" source="1pLQQAhpk_TerMQ9mpoH-52" target="1pLQQAhpk_TerMQ9mpoH-25" edge="1">
                    <mxGeometry relative="1" as="geometry"/>
                </mxCell>
                <mxCell id="1pLQQAhpk_TerMQ9mpoH-55" value="/cmd_vel" style="edgeLabel;html=1;align=center;verticalAlign=middle;resizable=0;points=[];" parent="1pLQQAhpk_TerMQ9mpoH-54" vertex="1" connectable="0">
                    <mxGeometry x="0.1103" relative="1" as="geometry">
                        <mxPoint as="offset"/>
                    </mxGeometry>
                </mxCell>
                <mxCell id="1pLQQAhpk_TerMQ9mpoH-57" style="edgeStyle=orthogonalEdgeStyle;rounded=0;orthogonalLoop=1;jettySize=auto;html=1;exitX=1;exitY=0.25;exitDx=0;exitDy=0;entryX=0.927;entryY=0.999;entryDx=0;entryDy=0;entryPerimeter=0;" parent="1" source="1pLQQAhpk_TerMQ9mpoH-52" target="1pLQQAhpk_TerMQ9mpoH-43" edge="1">
                    <mxGeometry relative="1" as="geometry">
                        <Array as="points">
                            <mxPoint x="970" y="450"/>
                            <mxPoint x="970" y="380"/>
                            <mxPoint x="1211" y="380"/>
                        </Array>
                    </mxGeometry>
                </mxCell>
                <mxCell id="1pLQQAhpk_TerMQ9mpoH-52" value="Control Gate" style="rounded=0;whiteSpace=wrap;html=1;" parent="1" vertex="1">
                    <mxGeometry x="810" y="435" width="120" height="60" as="geometry"/>
                </mxCell>
                <mxCell id="1pLQQAhpk_TerMQ9mpoH-66" style="edgeStyle=orthogonalEdgeStyle;rounded=0;orthogonalLoop=1;jettySize=auto;html=1;exitX=0.5;exitY=1;exitDx=0;exitDy=0;entryX=0.5;entryY=0;entryDx=0;entryDy=0;" parent="1" source="1pLQQAhpk_TerMQ9mpoH-61" target="1pLQQAhpk_TerMQ9mpoH-35" edge="1">
                    <mxGeometry relative="1" as="geometry"/>
                </mxCell>
                <mxCell id="1pLQQAhpk_TerMQ9mpoH-67" style="edgeStyle=orthogonalEdgeStyle;rounded=0;orthogonalLoop=1;jettySize=auto;html=1;exitX=0.25;exitY=1;exitDx=0;exitDy=0;entryX=0.25;entryY=0;entryDx=0;entryDy=0;" parent="1" source="1pLQQAhpk_TerMQ9mpoH-61" edge="1">
                    <mxGeometry relative="1" as="geometry">
                        <Array as="points">
                            <mxPoint x="935" y="50"/>
                            <mxPoint x="880" y="50"/>
                            <mxPoint x="880" y="220"/>
                            <mxPoint x="935" y="220"/>
                        </Array>
                        <mxPoint x="935" y="240" as="targetPoint"/>
                    </mxGeometry>
                </mxCell>
                <mxCell id="1pLQQAhpk_TerMQ9mpoH-61" value="Sensor Backup" style="rounded=0;whiteSpace=wrap;html=1;" parent="1" vertex="1">
                    <mxGeometry x="900" y="-40" width="140" height="60" as="geometry"/>
                </mxCell>
            </root>
        </mxGraphModel>
    </diagram>
</mxfile>